<?xml version="1.0" encoding="UTF-8"?><svg xmlns="http://www.w3.org/2000/svg" viewBox="0 0 486 440"><defs><style>.cls-1{stroke-width:1.5px;}.cls-1,.cls-2{stroke-linecap:round;}.cls-1,.cls-2,.cls-3,.cls-4,.cls-5,.cls-6{stroke:#221f20;stroke-miterlimit:10;}.cls-1,.cls-2,.cls-4,.cls-5,.cls-6{fill:none;}.cls-7{fill:#010;}.cls-8{fill:#97867a;}.cls-9{fill:#91b862;}.cls-10{fill:#8dcddf;}.cls-11{fill:#da3832;}.cls-12{fill:#bc9ac3;}.cls-13{fill:#c0b59e;}.cls-14{fill:#de5a38;}.cls-15,.cls-3{fill:#221f20;}.cls-16{fill:#99c555;}.cls-17{fill:#81a557;}.cls-4{stroke-width:2px;}.cls-6{stroke-width:.5px;}</style></defs><g id="Layer_2"><path class="cls-9" d="m85.837,63.755c19.806-12.446,33.685-17.525,66.951-31.69,37.781-16.088,31.906-14.658,37.939-16.514,17.818-5.483,24.026-4.093,105.29-4.492,7.332-.036,19.071-.105,33.874,3.682,14.325,3.665,24.857,9.238,30.017,12.228,5.686,3.296,10.929,6.981,27.172,21.424,13.039,11.594,20.941,18.62,31.914,29.677,17.06,17.19,12.374,14.899,39.765,44.919,2.32,2.542,6.023,6.578,9.522,12.874,1.219,2.193,6.002,11.121,8.002,27.815.918,7.663,2.023,23.169-2.667,42.676-4.255,17.698-11.871,32.863-13.271,32.388-2.43-.826,17.486-47.573,8.384-53.322-11.496-7.26-39.66,69.614-112.854,95.257-33.488,11.732-129.893,31.483-147.738,32.136-1.669.061-8.105.155-13.39,4.463-3.495,2.849-4.979,6.313-6.249,9.373-5.554,13.388-8.853,22.876-11.605,29.905-4.239,10.826-4.306,8.479-8.758,19.9-4.842,12.421-4.956,15.692-8.203,17.146-5.279,2.365-11.72-3.261-24.995-12.497-9.554-6.647-19.797-12.256-29.458-18.746-37.767-25.37-36.099-23.677-42.402-28.566-16.366-12.692-24.55-19.037-32.583-29.905-4.633-6.267-17.7-24.4-19.845-49.617-.564-6.626-.293-12.796,8.534-47.223,6.09-23.753,8.385-30.266,18.899-66.519,11.086-38.228,13.449-47.928,24.102-59.363,5.712-6.131,11.693-9.89,23.656-17.407Z"/><rect class="cls-16" x="343.99" y="264.676" width="33.318" height="17.135" transform="translate(239.072 -162.588) rotate(37.264)"/><rect class="cls-16" x="365.825" y="263.073" width="33.318" height="23.507" transform="translate(-55.11 100.657) rotate(-13.995)"/><path class="cls-9" d="m387.234,246.245c14.65-7.111,29.3-14.221,43.949-21.332-9.728,18.984-19.457,37.969-29.185,56.953l-26.517-20.174,11.752-15.447Z"/><path class="cls-9" d="m452.002,165.423c7.806,7.735,15.613,15.47,23.419,23.204-4.817,16.807-9.635,33.614-14.452,50.421l-30.648-14.153c7.227-19.824,14.454-39.648,21.681-59.472Z"/><ellipse class="cls-8" cx="401.867" cy="338.264" rx="7.106" ry="7.112"/><ellipse class="cls-8" cx="375.14" cy="385.721" rx="7.106" ry="7.112"/><rect class="cls-8" x="284.142" y="321.6" width="5.832" height="169.813" transform="translate(617.907 34.768) rotate(76.897)"/><rect class="cls-8" x="428.654" y="230.654" width="5.832" height="110.489" transform="translate(193.574 -173.828) rotate(29.107)"/><rect class="cls-8" x="174.174" y="370.036" width="5.832" height="71.805" transform="translate(612.297 488.053) rotate(124.254)"/></g><g id="Layer_6"><path class="cls-17" d="m31.486,295.351c-10.613-1.526-13.211-35.61-13.362-37.761-.991-14.167.772-26.249,5.809-46.475,9.098-36.532,13.586-38.24,21.495-69.132,8.441-32.972,5.501-39.516,15.104-52.285,5.255-6.986,16.549-13.467,38.923-26.142,29.678-16.813,48.157-25.063,70.294-34.856,9.88-4.371,17.208-7.408,27.304-9.876,5.595-1.368,13.662-2.958,34.856-4.067,16.214-.848,28.624-1.497,45.894-.581,24.231,1.286,36.502,1.937,52.285,7.552,15.074,5.363,25.051,12.302,36.599,20.333,4.247,2.954,11.372,8.121,42.99,37.761,22.929,21.494,29.257,28.221,35.437,35.437,17.46,20.387,20.776,29.547,22.076,33.695,3.98,12.697,3.193,23.496,2.324,35.437-.508,6.971-3.049,16.847-8.133,36.599-2.316,8.998-3.279,11.926-5.809,12.781-6.187,2.089-18.496-9.32-22.076-22.657-4.018-14.972,6.413-19.526,5.228-36.599-.8-11.525-8.473-22.013-23.819-42.99-8.905-12.173-16.371-20.606-24.4-29.628-14.593-16.399-23.259-26.137-36.018-36.599-12.396-10.165-24.659-20.221-42.409-26.723-22.607-8.282-41.551-6.196-71.456-2.905-6.461.711-31.762,3.721-63.323,14.524-20.97,7.178-34.288,11.736-49.38,23.238-17.151,13.071-26.502,27.418-33.114,37.761-8.992,14.067-9.241,18.809-28.466,68.551-16.553,42.828-17.693,42.739-18.009,50.542-.847,20.937,6.836,34.555-2.324,51.704-1.033,1.934-7.84,14.323-14.524,13.362Z"/><polygon class="cls-8" points="152.609 341.795 186.546 333.656 191.952 320.075 355.06 282.371 367.765 291.387 402.19 283.191 428.418 228.685 396.125 257.835 364.452 264.544 357.929 245.488 301.784 256.553 302.194 271.306 225.557 290.158 219.41 277.453 165.724 290.568 168.171 309.948 138.37 316.969 120.643 322.534 152.609 341.795"/></g><g id="Layer_9"><ellipse class="cls-12" cx="370.615" cy="201.151" rx="22.035" ry="22.821"/></g><g id="Layer_8"><path class="cls-13" d="m96.857,355.913c-6.084-4.053-14.598-9.647-24.927-16.181-14.205-8.986-18.423-11.261-20.408-17.055-2.707-7.904-.104-18.983,7.58-24.198,5.927-4.023,12.669-3.056,13.557-2.915,8.171,1.294,9.878,7.288,18.513,11.224,7.912,3.606,11.903-2.379,18.659,2.332,4.379,3.054,16.963,5.874,18.076,15.452"/></g><g id="Layer_7"><g><polygon class="cls-12" points="137.46 156.733 125.3 164.769 125.547 178.36 137.953 183.915 150.113 175.879 149.866 162.288 137.46 156.733"/><polygon class="cls-12" points="125.384 210.816 111.171 210.816 104.065 224.786 111.171 238.757 125.384 238.757 132.49 224.786 125.384 210.816"/><rect class="cls-12" x="137.005" y="170.237" width="19.047" height="23.118" transform="translate(-85.632 156.858) rotate(-45)"/><rect class="cls-12" x="139.626" y="183.317" width="9.493" height="54.239" transform="translate(70.812 -33.932) rotate(17.7)"/><rect class="cls-12" x="122.344" y="217.534" width="19.047" height="24.507" transform="translate(-109.142 339.812) rotate(-84.687)"/></g><polygon class="cls-12" points="336.932 135.459 326.474 124.118 311.923 127.043 307.83 141.31 318.289 152.651 332.84 149.725 336.932 135.459"/><polygon class="cls-12" points="288.682 127.186 291.445 113.244 278.098 103.354 261.988 107.406 259.225 121.347 272.572 131.237 288.682 127.186"/><rect class="cls-12" x="300.3" y="139.599" width="19.047" height="23.118" transform="translate(151.963 -155.305) rotate(36.74)"/><rect class="cls-12" x="280.616" y="118.766" width="9.493" height="54.239" transform="translate(551.022 -33.389) rotate(118.91)"/><rect class="cls-12" x="259.289" y="117.604" width="19.047" height="24.507" transform="translate(48.032 -71.088) rotate(16.523)"/></g><g id="Layer_3"><line class="cls-1" x1="70.151" y1="334.987" x2="71.473" y2="330.323"/><line class="cls-1" x1="76.304" y1="335.106" x2="74.982" y2="330.443"/><line class="cls-1" x1="59.47" y1="332.52" x2="64.875" y2="327.086"/><line class="cls-1" x1="59.674" y1="328.179" x2="63.885" y2="325.777"/><line class="cls-1" x1="63.981" y1="332.574" x2="66.305" y2="328.32"/><line class="cls-1" x1="57.066" y1="322.338" x2="61.739" y2="321.048"/><line class="cls-1" x1="87.056" y1="332.438" x2="81.256" y2="327.428"/><line class="cls-1" x1="82.633" y1="332.629" x2="79.941" y2="328.597"/><line class="cls-1" x1="86.715" y1="328.024" x2="82.309" y2="326.004"/><line class="cls-1" x1="73.166" y1="338.229" x2="73.216" y2="330.565"/><line class="cls-1" x1="59.793" y1="305.619" x2="65.126" y2="311.123"/><line class="cls-1" x1="64.215" y1="305.821" x2="66.539" y2="310.075"/><line class="cls-1" x1="59.741" y1="310.045" x2="63.952" y2="312.448"/><line class="cls-1" x1="53.965" y1="319.179" x2="61.629" y2="319.282"/><line class="cls-1" x1="57.228" y1="316.187" x2="61.883" y2="317.54"/><line class="cls-1" x1="86.484" y1="310.033" x2="82.334" y2="312.538"/><line class="cls-1" x1="82.071" y1="305.745" x2="79.852" y2="310.055"/><line class="cls-1" x1="92.137" y1="319.165" x2="84.474" y2="319.254"/><line class="cls-1" x1="88.951" y1="322.238" x2="84.264" y2="321.001"/><line class="cls-1" x1="88.958" y1="316.084" x2="84.319" y2="317.491"/><ellipse class="cls-4" cx="73.163" cy="319.22" rx="8.139" ry="8.096"/><g><line class="cls-1" x1="73.074" y1="300.228" x2="73.024" y2="307.892"/><line class="cls-1" x1="76.089" y1="303.47" x2="74.767" y2="308.133"/><line class="cls-1" x1="69.936" y1="303.35" x2="71.258" y2="308.014"/></g><line class="cls-1" x1="86.496" y1="305.606" x2="81.226" y2="311.171"/><circle class="cls-4" cx="134.667" cy="231.648" r="15.5"/><line class="cls-2" x1="147.127" y1="223.714" x2="129.817" y2="223.746"/><line class="cls-2" x1="149.943" y1="235.94" x2="130.633" y2="235.941"/><line class="cls-2" x1="137.03" y1="241.67" x2="122.09" y2="241.592"/><line class="cls-2" x1="126.654" y1="235.953" x2="120.074" y2="235.965"/><line class="cls-2" x1="134.24" y1="220.352" x2="124.901" y2="220.309"/><line class="cls-2" x1="149.438" y1="230.208" x2="140.886" y2="230.198"/><line class="cls-2" x1="131.336" y1="232.264" x2="124.756" y2="232.276"/><line class="cls-2" x1="131.418" y1="228.458" x2="127.604" y2="228.469"/><line class="cls-2" x1="124.996" y1="228.47" x2="120.415" y2="228.469"/><line class="cls-2" x1="137.913" y1="230.272" x2="135.678" y2="230.301"/><ellipse class="cls-2" cx="137.036" cy="235.743" rx="2.488" ry="2.377"/><circle class="cls-4" cx="358.892" cy="195.968" r="10"/><g><circle class="cls-4" cx="359.3" cy="196.94" r="15.5"/><ellipse class="cls-4" cx="359.536" cy="196.182" rx="15.5" ry="14.478"/><ellipse class="cls-4" cx="359.062" cy="195.699" rx="9.618" ry="9.608"/><circle class="cls-15" cx="359.554" cy="194.204" r="5"/><circle class="cls-15" cx="364.553" cy="182.563" r="2.5"/><circle class="cls-15" cx="351.201" cy="201.488" r="2.5"/></g></g><g id="Layer_4"><circle class="cls-5" cx="274.697" cy="122.774" r="2.5"/><polygon class="cls-15" points="281.496 137.75 277.87 137.275 276.477 133.423 279.243 131.518 282.345 134.193 281.496 137.75"/><polygon class="cls-15" points="267.369 137.745 270.996 137.269 272.388 133.418 269.623 131.513 266.521 134.187 267.369 137.745"/><polygon class="cls-7" points="274.74 107.142 269.859 113.682 279.62 113.682 274.74 107.142"/><path class="cls-4" d="m274.249,134.536c-3.553-.097-6.321-4.315-6.183-9.422.139-5.107,3.272-14.347,6.826-14.25s6.181,9.493,6.042,14.6-3.132,9.169-6.685,9.072Z"/><path class="cls-15" d="m210.47,43.705c-.319-1.073-7.039-1.429-12.734,1.709-2.196,1.211-6.325,3.486-6.895,7.673-.654,4.805,3.867,8.537,4.626,9.164,6.2,5.119,17.001,4.577,20.771-.436.222-.295,2.38-3.251,1.222-5.935-.976-2.263-3.761-3.06-5.586-3.055-1.548.004-4.056.59-4.538,2.182-.058.192-.266.877.087,1.309.873,1.068,3.751-1.148,5.782.038.863.504,1.568,1.621,1.462,2.581-.274,2.482-6.069,4.81-11.12,4.086-5.024-.72-10.627-4.649-10.35-8.624.167-2.398,2.421-4.061,4.111-5.307,4.089-3.016,10.66-4.226,11.852-4.111.092.009.473.057.797-.163.398-.27.588-.859.513-1.111Z"/><path class="cls-15" d="m205.612,69.762c.004,1.119,6.352,3.354,12.7,1.946,1.397-.31,6.017-1.389,8.776-5.421.604-.883,1.896-2.77,1.836-5.316-.045-1.919-.843-3.573-1.152-4.212-.541-1.12-1.118-1.871-1.25-2.04-1.44-1.845-3.128-2.734-4.146-3.258-.286-.147-1.147-.578-2.534-1.02-3.137-1.001-5.924-1.092-7.535-1.053-3.248.079-5.124.116-7.13,1.373-.714.447-3.732,2.34-3.729,5.34.002,1.882,1.241,3.279,1.514,3.587.251.283,1.588,1.737,3.817,2.007,1.677.203,4.084-.236,5.023-1.895.177-.312.526-.929.285-1.281-.628-.917-4.105,1.643-6.262.346-1.054-.634-1.722-2.157-1.448-3.323.659-2.803,6.965-4.171,11.879-3.258,1.59.295,4.799.892,7.108,3.685,1.795,2.172,3.271,5.943,1.833,8.398-.656,1.121-1.933,1.99-2.721,2.527-.413.281-1.358.889-2.717,1.408-4.927,1.882-11.328,1.089-12.53.607-.085-.034-.438-.187-.81-.068-.458.146-.806.659-.805.922Z"/><ellipse class="cls-15" cx="207.761" cy="47.523" rx="1.207" ry="1.319"/><ellipse class="cls-15" cx="198.948" cy="54.064" rx="1.207" ry="1.319"/><ellipse class="cls-15" cx="199.958" cy="59.79" rx="1.207" ry="1.319"/><ellipse class="cls-15" cx="218.428" cy="54.4" rx="1.207" ry="1.319"/><ellipse class="cls-15" cx="221.459" cy="60.688" rx="1.207" ry="1.319"/><ellipse class="cls-15" cx="213.487" cy="66.358" rx="1.207" ry="1.319"/></g><g id="Layer_5"><g><path class="cls-10" d="m92.488,347.105c.102-3.009,1.59-5.566,1.59-5.566.347-.596,2.94-4.913,7.157-5.407,2.43-.285,3.092.971,5.407.318,2.207-.622,3.567-2.315,4.135-3.022,1.802-2.242,1.199-3.405,2.545-5.248,1.573-2.155,5.024-3.101,7.475-3.499,5.376-.872,9.717.467,10.485.713,8.251,2.645,8.372,7.732,17.291,11.16,3.981,1.53,4.091.568,8.155,2.33,5.677,2.462,6.64,4.849,11.611,7.092,6.552,2.956,10.328,1.213,10.824,2.72,1.659,5.045-21.964,25.302-48.665,22.901-20.808-1.871-38.26-17.109-38.009-24.491Z"/><path class="cls-10" d="m134.218,381.207c1.214-20.343,10.126-34.884,20.209-36.428,2.051-.314,5.395-.281,9.795,2.223,2.487.941,6.463,2.03,11.342,1.621,1.915-.161,3.612-.522,5.049-.941-1.907,4.962-3.497,9.033-4.595,11.832-7.517,19.161-10.36,25.456-11.879,28.741-1.905,4.119-3.535,7.408-4.535,9.392-8.462-5.48-16.924-10.961-25.386-16.441Z"/><rect class="cls-10" x="105.319" y="356.702" width="61.4" height="23.507" transform="translate(222.115 -14.752) rotate(32.925)"/><path class="cls-10" d="m175.977,358.9l11.172-26.974c.095-.231-.12-.468-.359-.395l-35.514,10.854c-.239.073-.285.391-.077.529l24.342,16.12c.155.103.365.038.436-.133Z"/></g><polygon class="cls-10" points="156.299 338.574 179.415 332.819 186.79 331.035 187.149 331.447 160.284 343.114 156.299 338.574"/></g><g id="Layer_10"><ellipse class="cls-14" cx="113.317" cy="348.533" rx="11.558" ry="11.289"/><ellipse class="cls-14" cx="140.528" cy="169.421" rx="12.012" ry="11.733"/><ellipse class="cls-14" cx="198.585" cy="151.633" rx="12.005" ry="11.451"/><ellipse class="cls-14" cx="302.56" cy="294.504" rx="10.645" ry="10.397"/><ellipse class="cls-14" cx="407.286" cy="87.502" rx="14.478" ry="13.666"/><ellipse class="cls-14" cx="146.691" cy="49.922" rx="14.478" ry="13.666"/><ellipse class="cls-14" cx="44.758" cy="175.026" rx="14.478" ry="13.666"/></g><g id="Layer_11"><g><ellipse class="cls-14" cx="202.689" cy="298.828" rx="11.983" ry="11.704"/><g><polygon class="cls-15" points="199.956 293.817 200.04 298.353 200.77 298.358 200.693 305.737 201.842 305.788 201.842 298.333 202.531 298.307 202.531 293.354 201.919 293.354 201.944 295.448 201.536 295.473 201.459 293.303 200.923 293.303 200.897 295.499 200.642 295.499 200.56 293.308 199.978 293.278 199.956 293.817"/><g><polyline class="cls-15" points="199.978 293.278 199.96 294.032 200.04 298.353"/><polygon class="cls-15" points="205.389 293.455 204.453 294.75 204.453 300.725 205.137 300.797 205.137 305.512 206.145 305.548 206.145 293.455 205.389 293.455"/></g></g></g><polygon class="cls-15" points="146.529 164.641 140.966 170.204 140.923 174.377 143.444 174.507 143.4 175.116 137.75 175.116 137.75 174.333 140.01 174.333 140.184 170.161 134.707 164.641 146.529 164.641"/><g><ellipse class="cls-14" cx="175.664" cy="283.537" rx="11.576" ry="11.307"/><g><polygon class="cls-15" points="172.409 280.772 172.409 281.813 174.699 281.865 174.699 287.747 171.732 287.903 171.732 288.997 179.54 288.945 179.54 288.008 176.573 287.851 176.521 280.72 172.409 280.772"/><polygon class="cls-15" points="174.798 277.051 174.798 278.769 176.579 278.769 176.579 277.009 174.798 277.051"/></g></g><g><ellipse class="cls-14" cx="180.094" cy="314.939" rx="11.881" ry="11.604"/><polygon class="cls-15" points="178.605 308.374 178.633 313.792 173.605 313.922 173.67 316.926 178.502 316.991 178.502 322.019 182.159 322.019 182.159 316.926 187.252 316.926 187.217 313.764 182.289 313.726 182.224 308.372 178.605 308.374"/></g><g><path class="cls-15" d="m197.473,150.728c-.418-.521.525-1.467.124-1.992-.543-.71-3.29-.32-4.388,1.267-1.225,1.772-.221,4.788,1.792,6.095,2.513,1.632,6.462.514,7.477-1.75.544-1.213.373-3.038-.618-3.681-1.372-.89-3.765.838-4.388.06Z"/><line class="cls-6" x1="201.926" y1="144.549" x2="198.236" y2="152.406"/><ellipse class="cls-11" cx="196.019" cy="149.815" rx="1.137" ry=".843" transform="translate(-50.433 161.174) rotate(-40.029)"/></g><g><path class="cls-2" d="m104.247,349.926c.511.559,1.695,1.695,3.581,2.217,2.291.633,4.235-.023,5.002-.341,1.089-.452,1.127-.772,1.933-1.08,1.104-.421,2.894-.53,5.798,1.137"/><ellipse class="cls-15" cx="117.467" cy="346.743" rx="1.822" ry="1.705"/><path class="cls-15" d="m114.787,348.825c-.122,1.167-3.123,1.66-3.41,1.705-1.641.257-3.057-.01-3.069-.227-.011-.205,1.228-1.48,2.358-2.129.601-.345,1.194-1.046,1.208-1.166.067-.554-.278-.749-.683-.746-.233.002-.87-.127-1.586.189-.928.41-1.955,1.414-2.207,1.465-.298.06.123-.94.398-1.364.806-1.244,2.595-1.781,3.865-1.762.669.01.465.626,1.819,2.274.99,1.204,1.351,1.346,1.307,1.762Z"/></g><polygon class="cls-3" points="306.414 300.354 298.192 300.242 296.847 297.738 307.947 297.85 306.414 300.354"/><polygon class="cls-15" points="301.468 296.491 301.486 288.596 296.71 296.421 301.468 296.491"/><polygon class="cls-15" points="301.865 296.838 301.922 287.363 308.878 296.86 301.865 296.838"/><path class="cls-15" d="m404.028,82.621l-3.38,10.966c1.128,0,1.676-.05,2.804-.05.508,0,.926-5.283,1.227-5.683,0,0,2.454,5.683,2.454,5.683.01,0,3.119-.125,3.13-.125-.726-1.252-1.754-3.143-3.079-5.258l-3.155-5.533Z"/><path class="cls-15" d="m413.877,79.918c-.881.499-1.916,1.005-3.103,1.449-2.347.876-4.483,1.208-6.132,1.322,2.103,3.443,4.206,6.885,6.308,10.328.819-.902,1.976-2.002,3.524-3.033,1.406-.937,2.734-1.55,3.806-1.956-1.468-2.703-2.935-5.406-4.403-8.109Z"/><path class="cls-15" d="m140.839,45.154l-3.38,10.966c1.128,0,1.676-.05,2.804-.05.508,0,.926-5.283,1.227-5.683,0,0,2.454,5.683,2.454,5.683.01,0,3.119-.125,3.13-.125-.726-1.252-1.754-3.143-3.079-5.258l-3.155-5.533Z"/><path class="cls-15" d="m150.687,42.451c-.881.499-1.916,1.005-3.103,1.449-2.347.876-4.483,1.208-6.132,1.322,2.103,3.443,4.206,6.885,6.308,10.328.819-.902,1.976-2.002,3.524-3.033,1.406-.937,2.734-1.55,3.806-1.956-1.468-2.703-2.935-5.406-4.403-8.109Z"/><path class="cls-15" d="m40.423,170.599l-3.38,10.966c1.128,0,1.676-.05,2.804-.05.508,0,.926-5.283,1.227-5.683,0,0,2.454,5.683,2.454,5.683.01,0,3.119-.125,3.13-.125-.726-1.252-1.754-3.143-3.079-5.258l-3.155-5.533Z"/><path class="cls-15" d="m50.272,167.896c-.881.499-1.916,1.005-3.103,1.449-2.347.876-4.483,1.208-6.132,1.322,2.103,3.443,4.206,6.885,6.308,10.328.819-.902,1.976-2.002,3.524-3.033,1.406-.937,2.734-1.55,3.806-1.956-1.468-2.703-2.935-5.406-4.403-8.109Z"/><g><circle class="cls-14" cx="214.739" cy="273.962" r="11.543"/><g><path class="cls-15" d="m210.996,271.415c-1.737,2.845-1.872,3.137-1.872,3.137l.024.251.22-.045,1.205-1.339.059,6.016h.632l-.015-3.67.555.023.031,3.679.648-.017-.029-4.331.015-1.79,1.205,1.263.338.03v-.406l-1.748-2.797-1.267-.004Z"/><path class="cls-15" d="m216.977,271.475c-1.737,2.845-1.872,3.137-1.872,3.137l.024.251.22-.045,1.205-1.339.059,6.016h.632l-.015-3.67.555.023.031,3.679.648-.017-.029-4.331.015-1.79,1.205,1.263.338.03v-.406l-1.748-2.797-1.267-.004Z"/><polygon class="cls-15" points="215.974 276.13 219.223 276.145 218.248 272.883 216.748 272.93 215.974 276.13"/><ellipse class="cls-15" cx="211.654" cy="270.09" rx=".815" ry="1.029"/><ellipse class="cls-15" cx="217.633" cy="270.02" rx=".815" ry="1.029"/></g></g><g><circle class="cls-14" cx="77.374" cy="145.104" r="11.543"/><g><path class="cls-15" d="m73.632,142.558c-1.737,2.845-1.872,3.137-1.872,3.137l.024.251.22-.045,1.205-1.339.059,6.016h.632l-.015-3.67.555.023.031,3.679.648-.017-.029-4.331.015-1.79,1.205,1.263.338.03v-.406l-1.748-2.797-1.267-.004Z"/><path class="cls-15" d="m79.613,142.617c-1.737,2.845-1.872,3.137-1.872,3.137l.024.251.22-.045,1.205-1.339.059,6.016h.632l-.015-3.67.555.023.031,3.679.648-.017-.029-4.331.015-1.79,1.205,1.263.338.03v-.406l-1.748-2.797-1.267-.004Z"/><polygon class="cls-15" points="78.61 147.272 81.859 147.288 80.884 144.025 79.383 144.072 78.61 147.272"/><ellipse class="cls-15" cx="74.29" cy="141.232" rx=".815" ry="1.029"/><ellipse class="cls-15" cx="80.269" cy="141.162" rx=".815" ry="1.029"/></g></g><g><circle class="cls-14" cx="229.576" cy="84.83" r="11.543"/><g><path class="cls-15" d="m225.833,82.284c-1.737,2.845-1.872,3.137-1.872,3.137l.024.251.22-.045,1.205-1.339.059,6.016h.632l-.015-3.67.555.023.031,3.679.648-.017-.029-4.331.015-1.79,1.205,1.263.338.03v-.406l-1.748-2.797-1.267-.004Z"/><path class="cls-15" d="m231.814,82.344c-1.737,2.845-1.872,3.137-1.872,3.137l.024.251.22-.045,1.205-1.339.059,6.016h.632l-.015-3.67.555.023.031,3.679.648-.017-.029-4.331.015-1.79,1.205,1.263.338.03v-.406l-1.748-2.797-1.267-.004Z"/><polygon class="cls-15" points="230.811 86.998 234.06 87.014 233.085 83.751 231.585 83.799 230.811 86.998"/><ellipse class="cls-15" cx="226.492" cy="80.958" rx=".815" ry="1.029"/><ellipse class="cls-15" cx="232.47" cy="80.889" rx=".815" ry="1.029"/></g></g><ellipse class="cls-14" cx="169.238" cy="132.508" rx="12.012" ry="11.733"/><polygon class="cls-15" points="175.021 128.151 169.458 133.714 169.414 137.887 171.935 138.017 171.892 138.625 166.241 138.625 166.241 137.843 168.501 137.843 168.675 133.671 163.199 128.151 175.021 128.151"/><ellipse class="cls-14" cx="328.92" cy="148.425" rx="12.012" ry="11.733"/><polygon class="cls-15" points="335.456 144.021 329.893 149.584 329.85 153.757 332.37 153.887 332.327 154.495 326.677 154.495 326.677 153.713 328.937 153.713 329.111 149.541 323.634 144.021 335.456 144.021"/><g><circle class="cls-14" cx="438.361" cy="159.133" r="11.543"/><g><path class="cls-15" d="m434.619,156.586c-1.737,2.845-1.872,3.137-1.872,3.137l.024.251.22-.045,1.205-1.339.059,6.016h.632l-.015-3.67.555.023.031,3.679.648-.017-.029-4.331.015-1.79,1.205,1.263.338.03v-.406l-1.748-2.797-1.267-.004Z"/><path class="cls-15" d="m440.6,156.646c-1.737,2.845-1.872,3.137-1.872,3.137l.024.251.22-.045,1.205-1.339.059,6.016h.632l-.015-3.67.555.023.031,3.679.648-.017-.029-4.331.015-1.79,1.205,1.263.338.03v-.406l-1.748-2.797-1.267-.004Z"/><polygon class="cls-15" points="439.597 161.3 442.846 161.316 441.871 158.053 440.37 158.101 439.597 161.3"/><ellipse class="cls-15" cx="435.277" cy="155.26" rx=".815" ry="1.029"/><ellipse class="cls-15" cx="441.256" cy="155.191" rx=".815" ry="1.029"/></g></g><g><circle class="cls-14" cx="302.118" cy="34.823" r="11.543"/><g><path class="cls-15" d="m298.376,32.277c-1.737,2.845-1.872,3.137-1.872,3.137l.024.251.22-.045,1.205-1.339.059,6.016h.632l-.015-3.67.555.023.031,3.679.648-.017-.029-4.331.015-1.79,1.205,1.263.338.03v-.406l-1.748-2.797-1.267-.004Z"/><path class="cls-15" d="m304.357,32.337c-1.737,2.845-1.872,3.137-1.872,3.137l.024.251.22-.045,1.205-1.339.059,6.016h.632l-.015-3.67.555.023.031,3.679.648-.017-.029-4.331.015-1.79,1.205,1.263.338.03v-.406l-1.748-2.797-1.267-.004Z"/><polygon class="cls-15" points="303.354 36.991 306.603 37.007 305.628 33.744 304.127 33.791 303.354 36.991"/><ellipse class="cls-15" cx="299.034" cy="30.951" rx=".815" ry="1.029"/><ellipse class="cls-15" cx="305.013" cy="30.881" rx=".815" ry="1.029"/></g></g><g><circle class="cls-14" cx="335.198" cy="251.11" r="11.543"/><g><path class="cls-15" d="m331.455,248.564c-1.737,2.845-1.872,3.137-1.872,3.137l.024.251.22-.045,1.205-1.339.059,6.016h.632l-.015-3.67.555.023.031,3.679.648-.017-.029-4.331.015-1.79,1.205,1.263.338.03v-.406l-1.748-2.797-1.267-.004Z"/><path class="cls-15" d="m337.436,248.623c-1.737,2.845-1.872,3.137-1.872,3.137l.024.251.22-.045,1.205-1.339.059,6.016h.632l-.015-3.67.555.023.031,3.679.648-.017-.029-4.331.015-1.79,1.205,1.263.338.03v-.406l-1.748-2.797-1.267-.004Z"/><polygon class="cls-15" points="336.433 253.278 339.682 253.294 338.707 250.031 337.207 250.078 336.433 253.278"/><ellipse class="cls-15" cx="332.113" cy="247.238" rx=".815" ry="1.029"/><ellipse class="cls-15" cx="338.092" cy="247.168" rx=".815" ry="1.029"/></g></g><ellipse class="cls-14" cx="185.713" cy="78.049" rx="12.005" ry="11.451"/><g><path class="cls-15" d="m184.601,77.144c-.418-.521.525-1.467.124-1.992-.543-.71-3.29-.32-4.388,1.267-1.225,1.772-.221,4.788,1.792,6.095,2.513,1.632,6.462.514,7.477-1.75.544-1.213.373-3.038-.618-3.681-1.372-.89-3.765.838-4.388.06Z"/><line class="cls-6" x1="189.054" y1="70.965" x2="185.364" y2="78.822"/><ellipse class="cls-11" cx="183.147" cy="76.231" rx="1.137" ry=".843" transform="translate(-6.122 135.656) rotate(-40.029)"/></g></g></svg>